<svg width="477" height="82" viewBox="0 0 477 82" fill="none" xmlns="http://www.w3.org/2000/svg">
<path fill-rule="evenodd" clip-rule="evenodd" d="M126.44 0.517578L138.759 31.2617L151.077 0.517578H157.521V38.1973H152.552V23.5239L153.018 7.68604L140.648 38.1973H136.844L124.5 7.76367L124.991 23.5239V38.1973H120.022V0.517578H126.44ZM182.831 38.1973C182.555 37.6452 182.33 36.6618 182.158 35.2471C179.932 37.5589 177.275 38.7148 174.187 38.7148C171.427 38.7148 169.158 37.9385 167.381 36.3857C165.621 34.8158 164.741 32.8317 164.741 30.4336C164.741 27.5179 165.845 25.2578 168.054 23.6533C170.279 22.0316 173.402 21.2207 177.422 21.2207H182.08V19.021C182.08 17.3475 181.58 16.019 180.579 15.0356C179.578 14.035 178.103 13.5347 176.154 13.5347C174.446 13.5347 173.014 13.966 171.858 14.8286C170.702 15.6912 170.124 16.735 170.124 17.96H165.311C165.311 16.5625 165.802 15.2168 166.786 13.9229C167.786 12.6117 169.132 11.5765 170.823 10.8174C172.531 10.0583 174.403 9.67871 176.438 9.67871C179.665 9.67871 182.192 10.4896 184.021 12.1113C185.85 13.7158 186.799 15.9328 186.868 18.7622V31.6499C186.868 34.2205 187.195 36.265 187.851 37.7832V38.1973H182.831ZM174.886 34.5483C176.387 34.5483 177.81 34.1602 179.156 33.3838C180.501 32.6074 181.476 31.5981 182.08 30.356V24.6108H178.328C172.462 24.6108 169.529 26.3275 169.529 29.7607C169.529 31.2617 170.029 32.4349 171.03 33.2803C172.03 34.1257 173.316 34.5483 174.886 34.5483ZM203.12 31.1841L209.641 10.1963H214.765L203.508 42.519C201.765 47.1772 198.996 49.5063 195.201 49.5063L194.295 49.4287L192.509 49.0923V45.2104L193.803 45.314C195.425 45.314 196.684 44.9862 197.582 44.3306C198.496 43.675 199.246 42.4759 199.833 40.7334L200.894 37.8867L190.905 10.1963H196.132L203.12 31.1841ZM229.93 34.8071C231.638 34.8071 233.131 34.2896 234.407 33.2544C235.684 32.2192 236.391 30.9253 236.529 29.3726H241.058C240.972 30.9771 240.42 32.5039 239.402 33.9531C238.384 35.4023 237.021 36.5583 235.313 37.4209C233.622 38.2835 231.828 38.7148 229.93 38.7148C226.117 38.7148 223.081 37.4468 220.821 34.9106C218.578 32.3573 217.457 28.8722 217.457 24.4556V23.6533C217.457 20.9274 217.957 18.5034 218.958 16.3813C219.958 14.2593 221.39 12.6117 223.253 11.4385C225.134 10.2653 227.351 9.67871 229.904 9.67871C233.044 9.67871 235.649 10.619 237.72 12.4995C239.807 14.38 240.92 16.8213 241.058 19.8232H236.529C236.391 18.0117 235.701 16.528 234.459 15.3721C233.234 14.1989 231.716 13.6123 229.904 13.6123C227.472 13.6123 225.583 14.4922 224.237 16.252C222.908 17.9945 222.244 20.522 222.244 23.8345V24.7402C222.244 27.9665 222.908 30.4508 224.237 32.1934C225.565 33.9359 227.463 34.8071 229.93 34.8071ZM245.173 23.938C245.173 21.1948 245.708 18.7277 246.777 16.5366C247.864 14.3455 249.365 12.6548 251.28 11.4644C253.213 10.2739 255.412 9.67871 257.879 9.67871C261.692 9.67871 264.772 10.9985 267.118 13.6382C269.482 16.2778 270.664 19.7887 270.664 24.1709V24.5073C270.664 27.2332 270.137 29.6831 269.085 31.8569C268.05 34.0135 266.557 35.6956 264.608 36.9033C262.676 38.111 260.45 38.7148 257.931 38.7148C254.136 38.7148 251.056 37.395 248.692 34.7554C246.346 32.1157 245.173 28.6221 245.173 24.2744V23.938ZM249.986 24.5073C249.986 27.6128 250.702 30.1058 252.134 31.9863C253.583 33.8669 255.516 34.8071 257.931 34.8071C260.364 34.8071 262.296 33.8582 263.728 31.9604C265.16 30.0454 265.876 27.3713 265.876 23.938C265.876 20.867 265.143 18.3827 263.676 16.4849C262.227 14.5698 260.295 13.6123 257.879 13.6123C255.516 13.6123 253.609 14.5526 252.16 16.4331C250.711 18.3136 249.986 21.005 249.986 24.5073ZM281.196 10.1963L281.352 13.7158C283.491 11.0244 286.286 9.67871 289.736 9.67871C295.654 9.67871 298.639 13.0171 298.69 19.6938V38.1973H293.903V19.668C293.886 17.6494 293.42 16.1571 292.505 15.1909C291.608 14.2248 290.202 13.7417 288.287 13.7417C286.734 13.7417 285.371 14.1558 284.198 14.9839C283.025 15.812 282.111 16.8989 281.455 18.2446V38.1973H276.667V10.1963H281.196ZM330.91 21.4019C326.648 20.1769 323.543 18.6759 321.593 16.8989C319.661 15.1047 318.695 12.8963 318.695 10.2739C318.695 7.30648 319.877 4.85661 322.24 2.92432C324.621 0.974772 327.709 0 331.505 0C334.093 0 336.396 0.500326 338.415 1.50098C340.45 2.50163 342.02 3.88184 343.125 5.6416C344.246 7.40137 344.807 9.32503 344.807 11.4126H339.812C339.812 9.13525 339.087 7.34961 337.638 6.05566C336.189 4.74447 334.145 4.08887 331.505 4.08887C329.055 4.08887 327.14 4.63232 325.76 5.71924C324.397 6.7889 323.715 8.28125 323.715 10.1963C323.715 11.7318 324.362 13.0343 325.656 14.104C326.967 15.1564 329.184 16.1226 332.307 17.0024C335.447 17.8823 337.897 18.8571 339.657 19.9268C341.434 20.9792 342.745 22.2127 343.59 23.6274C344.453 25.0422 344.884 26.707 344.884 28.6221C344.884 31.6758 343.694 34.1257 341.313 35.9717C338.932 37.8005 335.749 38.7148 331.764 38.7148C329.176 38.7148 326.76 38.2231 324.518 37.2397C322.275 36.2391 320.541 34.8761 319.316 33.1509C318.108 31.4256 317.504 29.4674 317.504 27.2764H322.499C322.499 29.5537 323.336 31.3566 325.009 32.6851C326.7 33.9963 328.952 34.6519 331.764 34.6519C334.386 34.6519 336.396 34.117 337.793 33.0474C339.191 31.9777 339.89 30.5199 339.89 28.6738C339.89 26.8278 339.243 25.4045 337.949 24.4038C336.655 23.3859 334.308 22.3853 330.91 21.4019ZM367.813 38.1973C367.537 37.6452 367.313 36.6618 367.14 35.2471C364.915 37.5589 362.258 38.7148 359.169 38.7148C356.409 38.7148 354.14 37.9385 352.363 36.3857C350.604 34.8158 349.724 32.8317 349.724 30.4336C349.724 27.5179 350.828 25.2578 353.036 23.6533C355.262 22.0316 358.384 21.2207 362.404 21.2207H367.062V19.021C367.062 17.3475 366.562 16.019 365.562 15.0356C364.561 14.035 363.086 13.5347 361.136 13.5347C359.428 13.5347 357.996 13.966 356.84 14.8286C355.684 15.6912 355.106 16.735 355.106 17.96H350.293C350.293 16.5625 350.785 15.2168 351.768 13.9229C352.769 12.6117 354.114 11.5765 355.805 10.8174C357.513 10.0583 359.385 9.67871 361.421 9.67871C364.647 9.67871 367.175 10.4896 369.003 12.1113C370.832 13.7158 371.781 15.9328 371.85 18.7622V31.6499C371.85 34.2205 372.178 36.265 372.833 37.7832V38.1973H367.813ZM359.868 34.5483C361.369 34.5483 362.792 34.1602 364.138 33.3838C365.484 32.6074 366.459 31.5981 367.062 30.356V24.6108H363.31C357.444 24.6108 354.511 26.3275 354.511 29.7607C354.511 31.2617 355.012 32.4349 356.012 33.2803C357.013 34.1257 358.298 34.5483 359.868 34.5483ZM383.884 10.1963L384.039 13.7158C386.178 11.0244 388.973 9.67871 392.424 9.67871C398.341 9.67871 401.326 13.0171 401.378 19.6938V38.1973H396.59V19.668C396.573 17.6494 396.107 16.1571 395.193 15.1909C394.296 14.2248 392.89 13.7417 390.975 13.7417C389.422 13.7417 388.059 14.1558 386.886 14.9839C385.713 15.812 384.798 16.8989 384.143 18.2446V38.1973H379.355V10.1963H383.884ZM415.094 3.41602V10.1963H420.321V13.897H415.094V31.2617C415.094 32.3831 415.327 33.2285 415.792 33.7979C416.258 34.3499 417.052 34.626 418.173 34.626C418.725 34.626 419.485 34.5225 420.451 34.3154V38.1973C419.191 38.5423 417.966 38.7148 416.776 38.7148C414.637 38.7148 413.023 38.0679 411.937 36.7739C410.85 35.48 410.306 33.6426 410.306 31.2617V13.897H405.208V10.1963H410.306V3.41602H415.094ZM424.151 23.938C424.151 21.1948 424.686 18.7277 425.756 16.5366C426.843 14.3455 428.344 12.6548 430.259 11.4644C432.191 10.2739 434.391 9.67871 436.858 9.67871C440.671 9.67871 443.75 10.9985 446.097 13.6382C448.46 16.2778 449.642 19.7887 449.642 24.1709V24.5073C449.642 27.2332 449.116 29.6831 448.063 31.8569C447.028 34.0135 445.536 35.6956 443.586 36.9033C441.654 38.111 439.429 38.7148 436.91 38.7148C433.114 38.7148 430.035 37.395 427.671 34.7554C425.325 32.1157 424.151 28.6221 424.151 24.2744V23.938ZM428.965 24.5073C428.965 27.6128 429.681 30.1058 431.113 31.9863C432.562 33.8669 434.494 34.8071 436.91 34.8071C439.342 34.8071 441.275 33.8582 442.707 31.9604C444.139 30.0454 444.854 27.3713 444.854 23.938C444.854 20.867 444.121 18.3827 442.655 16.4849C441.206 14.5698 439.273 13.6123 436.858 13.6123C434.494 13.6123 432.588 14.5526 431.139 16.4331C429.689 18.3136 428.965 21.005 428.965 24.5073ZM471.95 30.77C471.95 29.4761 471.458 28.4754 470.475 27.7681C469.508 27.0435 467.809 26.4224 465.376 25.9048C462.961 25.3872 461.037 24.7661 459.605 24.0415C458.191 23.3169 457.138 22.4543 456.448 21.4536C455.775 20.453 455.439 19.2625 455.439 17.8823C455.439 15.5877 456.405 13.6468 458.337 12.0596C460.287 10.4723 462.771 9.67871 465.791 9.67871C468.965 9.67871 471.536 10.4982 473.502 12.1372C475.486 13.7762 476.479 15.8724 476.479 18.4258H471.665C471.665 17.1146 471.104 15.9845 469.983 15.0356C468.879 14.0868 467.481 13.6123 465.791 13.6123C464.048 13.6123 462.685 13.9919 461.702 14.751C460.718 15.5101 460.227 16.5021 460.227 17.7271C460.227 18.883 460.684 19.7542 461.598 20.3408C462.513 20.9274 464.16 21.4881 466.541 22.0229C468.939 22.5578 470.88 23.1961 472.364 23.938C473.848 24.6798 474.943 25.577 475.65 26.6294C476.375 27.6646 476.737 28.9326 476.737 30.4336C476.737 32.9352 475.737 34.9451 473.735 36.4634C471.734 37.9644 469.138 38.7148 465.946 38.7148C463.703 38.7148 461.719 38.318 459.994 37.5244C458.268 36.7308 456.914 35.6266 455.931 34.2119C454.965 32.7799 454.481 31.2358 454.481 29.5796H459.269C459.355 31.1841 459.994 32.4608 461.184 33.4097C462.392 34.3413 463.979 34.8071 465.946 34.8071C467.757 34.8071 469.207 34.4448 470.293 33.7202C471.398 32.9784 471.95 31.995 471.95 30.77ZM22.1875 77.4941C17.5781 76.1921 14.1016 74.0436 11.7578 71.0488C9.4401 68.0801 8.28125 64.1478 8.28125 59.252V51.4785C8.28125 45.1504 5.52083 41.9863 0 41.9863V36.3223C5.52083 36.3223 8.28125 33.1712 8.28125 26.8691V18.7441C8.33333 13.9785 9.49219 10.1374 11.7578 7.2207C14.0495 4.27799 17.526 2.14258 22.1875 0.814453L23.6719 5.30664C18.2292 7.05143 15.5078 11.5957 15.5078 18.9395V26.8301C15.5078 32.7415 13.3333 36.8561 8.98438 39.1738C13.3333 41.5176 15.5078 45.6712 15.5078 51.6348V59.6816C15.5859 66.8431 18.3073 71.2832 23.6719 73.002L22.1875 77.4941ZM30.2344 59.4082C30.2344 58.1582 30.599 57.1165 31.3281 56.2832C32.0833 55.4499 33.2031 55.0332 34.6875 55.0332C36.1719 55.0332 37.2917 55.4499 38.0469 56.2832C38.8281 57.1165 39.2188 58.1582 39.2188 59.4082C39.2188 60.6061 38.8281 61.6087 38.0469 62.416C37.2917 63.2233 36.1719 63.627 34.6875 63.627C33.2031 63.627 32.0833 63.2233 31.3281 62.416C30.599 61.6087 30.2344 60.6061 30.2344 59.4082ZM51.3281 59.4082C51.3281 58.1582 51.6927 57.1165 52.4219 56.2832C53.1771 55.4499 54.2969 55.0332 55.7812 55.0332C57.2656 55.0332 58.3854 55.4499 59.1406 56.2832C59.9219 57.1165 60.3125 58.1582 60.3125 59.4082C60.3125 60.6061 59.9219 61.6087 59.1406 62.416C58.3854 63.2233 57.2656 63.627 55.7812 63.627C54.2969 63.627 53.1771 63.2233 52.4219 62.416C51.6927 61.6087 51.3281 60.6061 51.3281 59.4082ZM72.4219 59.4082C72.4219 58.1582 72.7865 57.1165 73.5156 56.2832C74.2708 55.4499 75.3906 55.0332 76.875 55.0332C78.3594 55.0332 79.4792 55.4499 80.2344 56.2832C81.0156 57.1165 81.4062 58.1582 81.4062 59.4082C81.4062 60.6061 81.0156 61.6087 80.2344 62.416C79.4792 63.2233 78.3594 63.627 76.875 63.627C75.3906 63.627 74.2708 63.2233 73.5156 62.416C72.7865 61.6087 72.4219 60.6061 72.4219 59.4082ZM88.6328 73.002C93.9193 71.3092 96.6536 66.9994 96.8359 60.0723V51.4785C96.8359 45.4629 99.1927 41.3613 103.906 39.1738C99.1927 37.0384 96.8359 32.9368 96.8359 26.8691V18.9395C96.8359 11.5957 94.1146 7.05143 88.6719 5.30664L90.1562 0.814453C94.7656 2.11654 98.2292 4.23893 100.547 7.18164C102.865 10.0983 104.036 13.9655 104.062 18.7832V26.9863C104.062 33.2103 106.823 36.3223 112.344 36.3223V41.9863C106.823 41.9863 104.062 45.1504 104.062 51.4785V59.3691C104.062 64.265 102.878 68.1842 100.508 71.127C98.1641 74.0697 94.7135 76.1921 90.1562 77.4941L88.6328 73.002ZM122.649 72.6772L122.28 70.146L119.248 57.002H116.717L121.357 76.1973H123.665L127.765 62.2095L128.068 60.7461L128.371 62.2095L132.326 76.1973H134.633L139.287 57.002H136.743L133.763 70.1328L133.354 72.7168L132.827 70.3965L129.123 57.002H126.987L123.19 70.3965L122.649 72.6772ZM142.504 74.5625C143.717 75.8281 145.29 76.4609 147.224 76.4609C149.614 76.4609 151.407 75.5425 152.603 73.7056L151.113 72.5454C150.665 73.1255 150.142 73.5913 149.544 73.9429C148.946 74.2944 148.217 74.4702 147.355 74.4702C146.143 74.4702 145.141 74.0396 144.35 73.1782C143.567 72.3081 143.159 71.1699 143.124 69.7637H152.787V68.7485C152.787 66.4722 152.273 64.7231 151.245 63.5015C150.216 62.2798 148.775 61.6689 146.92 61.6689C145.787 61.6689 144.732 61.9854 143.756 62.6182C142.79 63.2422 142.034 64.1123 141.489 65.2285C140.953 66.3359 140.685 67.5972 140.685 69.0122V69.4604C140.685 71.5874 141.291 73.2881 142.504 74.5625ZM144.442 64.7539C145.11 64.0332 145.936 63.6729 146.92 63.6729C147.94 63.6729 148.749 64.0156 149.346 64.7012C149.944 65.3779 150.278 66.3359 150.348 67.5752V67.7598H143.203C143.361 66.4678 143.774 65.4658 144.442 64.7539ZM166.195 74.4834C167.197 73.1562 167.698 71.4028 167.698 69.2231V69.0122C167.698 66.7358 167.201 64.9429 166.208 63.6333C165.224 62.3237 163.866 61.6689 162.134 61.6689C160.403 61.6689 159.045 62.2798 158.061 63.5015V55.9473H155.622V76.1973H157.863L157.981 74.5493C158.966 75.8237 160.359 76.4609 162.161 76.4609C163.848 76.4609 165.193 75.8018 166.195 74.4834ZM164.296 65.0967C164.938 66.002 165.259 67.2852 165.259 68.9463C165.259 70.7656 164.934 72.1279 164.283 73.0332C163.633 73.9385 162.723 74.3911 161.554 74.3911C159.972 74.3911 158.808 73.644 158.061 72.1499V65.98C158.764 64.4858 159.919 63.7388 161.528 63.7388C162.732 63.7388 163.655 64.1914 164.296 65.0967ZM185.944 74.6943C186.032 75.415 186.146 75.916 186.287 76.1973H188.844V75.9863C188.51 75.2129 188.343 74.1714 188.343 72.8618V66.2964C188.308 64.855 187.825 63.7256 186.893 62.9082C185.961 62.082 184.674 61.6689 183.03 61.6689C181.993 61.6689 181.04 61.8623 180.169 62.249C179.308 62.6357 178.623 63.1631 178.113 63.8311C177.612 64.4902 177.361 65.1758 177.361 65.8877H179.813C179.813 65.2637 180.108 64.7319 180.697 64.2925C181.286 63.853 182.015 63.6333 182.885 63.6333C183.878 63.6333 184.63 63.8882 185.14 64.3979C185.649 64.8989 185.904 65.5757 185.904 66.4282V67.5488H183.531C181.483 67.5488 179.893 67.9619 178.759 68.7881C177.634 69.6055 177.071 70.7568 177.071 72.2422C177.071 73.4639 177.52 74.4746 178.416 75.2744C179.321 76.0654 180.477 76.4609 181.883 76.4609C183.457 76.4609 184.81 75.8721 185.944 74.6943ZM184.415 73.7451C183.729 74.1406 183.004 74.3384 182.239 74.3384C181.439 74.3384 180.785 74.123 180.275 73.6924C179.765 73.2617 179.51 72.6641 179.51 71.8994C179.51 70.1504 181.004 69.2759 183.993 69.2759H185.904V72.2026C185.597 72.8354 185.1 73.3496 184.415 73.7451ZM194.553 63.7256L194.474 61.9326H192.167V76.1973H194.605V66.0327C194.939 65.3472 195.405 64.7935 196.003 64.3716C196.601 63.9497 197.295 63.7388 198.086 63.7388C199.062 63.7388 199.778 63.9849 200.235 64.4771C200.701 64.9692 200.938 65.7295 200.947 66.7578V76.1973H203.386V66.771C203.359 63.3696 201.839 61.6689 198.824 61.6689C197.066 61.6689 195.643 62.3545 194.553 63.7256ZM208.026 63.6729C206.989 65 206.471 66.7578 206.471 68.9463V69.1309C206.471 71.3105 206.989 73.0771 208.026 74.4307C209.072 75.7842 210.421 76.4609 212.074 76.4609C213.814 76.4609 215.172 75.8633 216.147 74.668L216.266 76.1973H218.507V55.9473H216.068V63.3828C215.093 62.2402 213.77 61.6689 212.1 61.6689C210.421 61.6689 209.063 62.3369 208.026 63.6729ZM209.912 73.02C209.244 72.106 208.91 70.8403 208.91 69.2231C208.91 67.4126 209.244 66.0459 209.912 65.123C210.58 64.2002 211.511 63.7388 212.707 63.7388C214.218 63.7388 215.339 64.4111 216.068 65.7559V72.3081C215.356 73.6968 214.227 74.3911 212.68 74.3911C211.502 74.3911 210.58 73.9341 209.912 73.02ZM238.929 72.6641L232.653 57.002H229.384V76.1973H231.915V68.7222L231.665 60.6934L237.953 76.1973H239.891L246.193 60.6538L245.956 68.7222V76.1973H248.487V57.002H245.204L238.929 72.6641ZM252.745 65.1626C252.2 66.2788 251.928 67.5356 251.928 68.9331V69.1045C251.928 71.3193 252.525 73.0991 253.721 74.4438C254.925 75.7886 256.494 76.4609 258.427 76.4609C259.71 76.4609 260.844 76.1533 261.829 75.5381C262.822 74.9229 263.582 74.0659 264.109 72.9673C264.646 71.8599 264.914 70.6118 264.914 69.2231V69.0518C264.914 66.8193 264.312 65.0308 263.107 63.686C261.912 62.3413 260.343 61.6689 258.401 61.6689C257.144 61.6689 256.023 61.9722 255.039 62.5786C254.063 63.1851 253.299 64.0464 252.745 65.1626ZM255.474 73.0332C254.745 72.0752 254.38 70.8052 254.38 69.2231C254.38 67.439 254.749 66.0679 255.487 65.1099C256.226 64.1519 257.197 63.6729 258.401 63.6729C259.631 63.6729 260.616 64.1606 261.354 65.1362C262.101 66.103 262.475 67.3687 262.475 68.9331C262.475 70.6821 262.11 72.0444 261.38 73.02C260.651 73.9868 259.667 74.4702 258.427 74.4702C257.197 74.4702 256.212 73.9912 255.474 73.0332ZM278.545 74.4834C279.547 73.1562 280.048 71.4028 280.048 69.2231V69.0122C280.048 66.7358 279.552 64.9429 278.559 63.6333C277.574 62.3237 276.216 61.6689 274.485 61.6689C272.753 61.6689 271.396 62.2798 270.411 63.5015V55.9473H267.972V76.1973H270.213L270.332 74.5493C271.316 75.8237 272.709 76.4609 274.511 76.4609C276.199 76.4609 277.543 75.8018 278.545 74.4834ZM276.647 65.0967C277.289 66.002 277.609 67.2852 277.609 68.9463C277.609 70.7656 277.284 72.1279 276.634 73.0332C275.983 73.9385 275.074 74.3911 273.905 74.3911C272.323 74.3911 271.158 73.644 270.411 72.1499V65.98C271.114 64.4858 272.27 63.7388 273.878 63.7388C275.083 63.7388 276.005 64.1914 276.647 65.0967ZM283.344 76.1973H285.783V61.9326H283.344V76.1973ZM283.502 57.147C283.265 57.4194 283.146 57.7534 283.146 58.1489C283.146 58.5444 283.265 58.874 283.502 59.1377C283.749 59.4014 284.109 59.5332 284.583 59.5332C285.058 59.5332 285.418 59.4014 285.665 59.1377C285.911 58.874 286.034 58.5444 286.034 58.1489C286.034 57.7534 285.911 57.4194 285.665 57.147C285.418 56.8745 285.058 56.7383 284.583 56.7383C284.109 56.7383 283.749 56.8745 283.502 57.147ZM289.91 76.1973H292.349V55.9473H289.91V76.1973ZM297.464 74.5625C298.677 75.8281 300.25 76.4609 302.184 76.4609C304.574 76.4609 306.367 75.5425 307.562 73.7056L306.073 72.5454C305.625 73.1255 305.102 73.5913 304.504 73.9429C303.906 74.2944 303.177 74.4702 302.315 74.4702C301.103 74.4702 300.101 74.0396 299.31 73.1782C298.527 72.3081 298.119 71.1699 298.083 69.7637H307.747V68.7485C307.747 66.4722 307.233 64.7231 306.205 63.5015C305.176 62.2798 303.735 61.6689 301.88 61.6689C300.747 61.6689 299.692 61.9854 298.716 62.6182C297.75 63.2422 296.994 64.1123 296.449 65.2285C295.913 66.3359 295.645 67.5972 295.645 69.0122V69.4604C295.645 71.5874 296.251 73.2881 297.464 74.5625ZM299.402 64.7539C300.07 64.0332 300.896 63.6729 301.88 63.6729C302.9 63.6729 303.708 64.0156 304.306 64.7012C304.904 65.3779 305.238 66.3359 305.308 67.5752V67.7598H298.163C298.321 66.4678 298.734 65.4658 299.402 64.7539ZM317.661 57.002V76.1973H322.974C324.697 76.1797 326.204 75.8062 327.496 75.0767C328.797 74.3472 329.794 73.3013 330.489 71.939C331.192 70.5767 331.543 68.9902 331.543 67.1797V65.9536C331.535 64.187 331.179 62.6226 330.476 61.2603C329.781 59.8979 328.792 58.8477 327.509 58.1094C326.226 57.3711 324.75 57.002 323.08 57.002H317.661ZM320.192 74.1274V59.085H323.146C325.026 59.1025 326.477 59.7178 327.496 60.9307C328.524 62.1348 329.039 63.8267 329.039 66.0063V67.127C329.039 69.3682 328.494 71.0952 327.404 72.3081C326.323 73.521 324.807 74.1274 322.855 74.1274H320.192ZM336.197 74.5625C337.41 75.8281 338.983 76.4609 340.917 76.4609C343.308 76.4609 345.101 75.5425 346.296 73.7056L344.806 72.5454C344.358 73.1255 343.835 73.5913 343.237 73.9429C342.64 74.2944 341.91 74.4702 341.049 74.4702C339.836 74.4702 338.834 74.0396 338.043 73.1782C337.261 72.3081 336.852 71.1699 336.817 69.7637H346.48V68.7485C346.48 66.4722 345.966 64.7231 344.938 63.5015C343.91 62.2798 342.468 61.6689 340.614 61.6689C339.48 61.6689 338.425 61.9854 337.45 62.6182C336.483 63.2422 335.727 64.1123 335.182 65.2285C334.646 66.3359 334.378 67.5972 334.378 69.0122V69.4604C334.378 71.5874 334.984 73.2881 336.197 74.5625ZM338.135 64.7539C338.803 64.0332 339.629 63.6729 340.614 63.6729C341.633 63.6729 342.442 64.0156 343.04 64.7012C343.637 65.3779 343.971 66.3359 344.042 67.5752V67.7598H336.896C337.054 66.4678 337.467 65.4658 338.135 64.7539ZM357.37 61.9326L353.837 72.8882L350.211 61.9326H347.72L352.888 76.1973H354.747L359.862 61.9326H357.37ZM363.224 74.5625C364.437 75.8281 366.01 76.4609 367.943 76.4609C370.334 76.4609 372.127 75.5425 373.322 73.7056L371.833 72.5454C371.384 73.1255 370.861 73.5913 370.264 73.9429C369.666 74.2944 368.937 74.4702 368.075 74.4702C366.862 74.4702 365.86 74.0396 365.069 73.1782C364.287 72.3081 363.878 71.1699 363.843 69.7637H373.507V68.7485C373.507 66.4722 372.993 64.7231 371.964 63.5015C370.936 62.2798 369.495 61.6689 367.64 61.6689C366.506 61.6689 365.452 61.9854 364.476 62.6182C363.509 63.2422 362.753 64.1123 362.208 65.2285C361.672 66.3359 361.404 67.5972 361.404 69.0122V69.4604C361.404 71.5874 362.011 73.2881 363.224 74.5625ZM365.162 64.7539C365.83 64.0332 366.656 63.6729 367.64 63.6729C368.66 63.6729 369.468 64.0156 370.066 64.7012C370.664 65.3779 370.998 66.3359 371.068 67.5752V67.7598H363.922C364.081 66.4678 364.494 65.4658 365.162 64.7539ZM376.552 76.1973H378.991V55.9473H376.552V76.1973ZM383.078 65.1626C382.533 66.2788 382.261 67.5356 382.261 68.9331V69.1045C382.261 71.3193 382.858 73.0991 384.054 74.4438C385.258 75.7886 386.827 76.4609 388.76 76.4609C390.043 76.4609 391.177 76.1533 392.162 75.5381C393.155 74.9229 393.915 74.0659 394.442 72.9673C394.979 71.8599 395.247 70.6118 395.247 69.2231V69.0518C395.247 66.8193 394.645 65.0308 393.44 63.686C392.245 62.3413 390.676 61.6689 388.734 61.6689C387.477 61.6689 386.356 61.9722 385.372 62.5786C384.396 63.1851 383.632 64.0464 383.078 65.1626ZM385.807 73.0332C385.078 72.0752 384.713 70.8052 384.713 69.2231C384.713 67.439 385.082 66.0679 385.82 65.1099C386.559 64.1519 387.53 63.6729 388.734 63.6729C389.964 63.6729 390.949 64.1606 391.687 65.1362C392.434 66.103 392.808 67.3687 392.808 68.9331C392.808 70.6821 392.443 72.0444 391.713 73.02C390.984 73.9868 390 74.4702 388.76 74.4702C387.53 74.4702 386.545 73.9912 385.807 73.0332ZM408.865 74.4702C409.858 73.1431 410.355 71.394 410.355 69.2231V68.999C410.355 66.6963 409.854 64.8989 408.852 63.6069C407.859 62.3149 406.505 61.6689 404.792 61.6689C403.025 61.6689 401.645 62.2842 400.652 63.5146L400.533 61.9326H398.305V81.6816H400.744V74.813C401.737 75.9116 403.1 76.4609 404.831 76.4609C406.527 76.4609 407.872 75.7974 408.865 74.4702ZM406.888 65.1362C407.573 66.0679 407.916 67.3379 407.916 68.9463C407.916 70.7744 407.569 72.1543 406.875 73.0859C406.189 74.0088 405.262 74.4702 404.093 74.4702C402.59 74.4702 401.474 73.8198 400.744 72.519V65.7031C401.482 64.3936 402.59 63.7388 404.066 63.7388C405.262 63.7388 406.202 64.2046 406.888 65.1362ZM414.666 74.5625C415.879 75.8281 417.452 76.4609 419.386 76.4609C421.776 76.4609 423.569 75.5425 424.765 73.7056L423.275 72.5454C422.827 73.1255 422.304 73.5913 421.706 73.9429C421.108 74.2944 420.379 74.4702 419.518 74.4702C418.305 74.4702 417.303 74.0396 416.512 73.1782C415.729 72.3081 415.321 71.1699 415.286 69.7637H424.949V68.7485C424.949 66.4722 424.435 64.7231 423.407 63.5015C422.378 62.2798 420.937 61.6689 419.083 61.6689C417.949 61.6689 416.894 61.9854 415.918 62.6182C414.952 63.2422 414.196 64.1123 413.651 65.2285C413.115 66.3359 412.847 67.5972 412.847 69.0122V69.4604C412.847 71.5874 413.453 73.2881 414.666 74.5625ZM416.604 64.7539C417.272 64.0332 418.098 63.6729 419.083 63.6729C420.102 63.6729 420.911 64.0156 421.508 64.7012C422.106 65.3779 422.44 66.3359 422.51 67.5752V67.7598H415.365C415.523 66.4678 415.936 65.4658 416.604 64.7539ZM433.479 64.0288C433.91 64.0288 434.31 64.0596 434.679 64.1211V61.8535C434.433 61.7305 434.072 61.6689 433.598 61.6689C432.13 61.6689 430.996 62.3062 430.196 63.5806L430.157 61.9326H427.784V76.1973H430.223V66.0723C430.794 64.71 431.879 64.0288 433.479 64.0288Z" fill="#A25ED2"/>
</svg>
