<svg xmlns="http://www.w3.org/2000/svg" viewBox="0 0 483.25 89.409">
  <g id="Logo" transform="translate(0.5 0.634)">
    <path id="União_1" data-name="União 1" d="M400.307,88.275V66.331h2.344l.131,1.758a4.173,4.173,0,0,1,3.736-2.05,4.459,4.459,0,0,1,3.9,1.816,9.6,9.6,0,0,1,1.333,5.434v1.729a9.482,9.482,0,0,1-1.354,5.611,4.473,4.473,0,0,1-3.83,1.845,4.25,4.25,0,0,1-3.677-1.8v7.6ZM402.884,70.2v8.247a3.059,3.059,0,0,0,2.857,1.817,2.869,2.869,0,0,0,2.586-1.267,7.278,7.278,0,0,0,.842-3.875V73.538a7.385,7.385,0,0,0-.821-3.933,2.906,2.906,0,0,0-2.636-1.267A3.053,3.053,0,0,0,402.884,70.2ZM97.163,81.211q7.031-2.768,7.25-14.546V56.953q0-10.151,6.988-13.8-6.988-3.6-6.988-13.974v-9.1q-.088-12.216-7.25-15.029L98.744,0a18.457,18.457,0,0,1,9.91,7.009q3.318,4.856,3.494,12.678V30.058q.22,9.889,7.558,9.888v6.372q-7.559,0-7.558,10.59v8.965q0,16-13.4,20.391ZM10.964,79.1Q7.6,74.135,7.558,66.006v-9.1q0-10.591-7.558-10.59V39.947q7.559,0,7.558-10.591V20.3Q7.6,12.217,10.9,7.229A18.529,18.529,0,0,1,20.962,0l1.581,5.054q-7.031,2.769-7.206,14.722v9.492q0,9.931-6.46,13.886,6.46,3.955,6.46,13.931v9.624q.219,11.777,7.163,14.5l-1.538,5.054A18.683,18.683,0,0,1,10.964,79.1Zm405.251,1.607a7.628,7.628,0,0,1-1.612-5.178v-1.92a8.937,8.937,0,0,1,1.545-5.558,5.129,5.129,0,0,1,4.315-2.014,4.94,4.94,0,0,1,4.16,1.772q1.377,1.773,1.407,5.522v1.7h-8.848V75.4a5.781,5.781,0,0,0,.959,3.706,3.384,3.384,0,0,0,2.761,1.157,4.482,4.482,0,0,0,2.014-.432,5.033,5.033,0,0,0,1.633-1.37L425.9,80.1a5.881,5.881,0,0,1-5.142,2.372A5.777,5.777,0,0,1,416.215,80.708Zm1.86-11.338a6.569,6.569,0,0,0-.879,3.435h6.241v-.351a6.051,6.051,0,0,0-.814-3.223,2.5,2.5,0,0,0-2.16-.967A2.718,2.718,0,0,0,418.075,69.37ZM386.412,80.526a8.083,8.083,0,0,1-1.721-5.274V73.524a8.289,8.289,0,0,1,1.677-5.471,5.483,5.483,0,0,1,4.432-2.014A5.54,5.54,0,0,1,395.23,68a8.131,8.131,0,0,1,1.722,5.346v1.67a8.259,8.259,0,0,1-1.67,5.45,5.963,5.963,0,0,1-8.869.059Zm1.831-10.848a6.734,6.734,0,0,0-.959,3.83v1.509a6.719,6.719,0,0,0,.959,3.845,2.985,2.985,0,0,0,2.586,1.4q3.428,0,3.531-4.952V73.524a6.715,6.715,0,0,0-.967-3.846,2.994,2.994,0,0,0-2.592-1.413A2.953,2.953,0,0,0,388.243,69.678Zm-22.8,11.03a7.628,7.628,0,0,1-1.612-5.178v-1.92a8.931,8.931,0,0,1,1.546-5.558,5.126,5.126,0,0,1,4.314-2.014,4.94,4.94,0,0,1,4.16,1.772q1.377,1.773,1.407,5.522v1.7H366.41V75.4a5.781,5.781,0,0,0,.959,3.706,3.384,3.384,0,0,0,2.761,1.157,4.482,4.482,0,0,0,2.014-.432,5.015,5.015,0,0,0,1.633-1.37l1.347,1.641a5.881,5.881,0,0,1-5.142,2.372A5.78,5.78,0,0,1,365.443,80.708ZM367.3,69.37a6.569,6.569,0,0,0-.879,3.435h6.241v-.351a6.06,6.06,0,0,0-.813-3.223,2.507,2.507,0,0,0-2.161-.967A2.718,2.718,0,0,0,367.3,69.37Zm-28.36,11.338a7.633,7.633,0,0,1-1.611-5.178v-1.92a8.931,8.931,0,0,1,1.545-5.558,5.129,5.129,0,0,1,4.314-2.014,4.941,4.941,0,0,1,4.161,1.772q1.377,1.773,1.406,5.522v1.7h-8.847V75.4a5.781,5.781,0,0,0,.959,3.706,3.382,3.382,0,0,0,2.761,1.157,4.482,4.482,0,0,0,2.014-.432,5.033,5.033,0,0,0,1.634-1.37l1.347,1.641a5.881,5.881,0,0,1-5.142,2.372A5.781,5.781,0,0,1,338.944,80.708ZM340.8,69.37a6.57,6.57,0,0,0-.878,3.435h6.241v-.351a6.059,6.059,0,0,0-.814-3.223,2.505,2.505,0,0,0-2.161-.967A2.72,2.72,0,0,0,340.8,69.37ZM300.9,80.708a7.628,7.628,0,0,1-1.612-5.178v-1.92a8.937,8.937,0,0,1,1.545-5.558,5.129,5.129,0,0,1,4.315-2.014,4.94,4.94,0,0,1,4.16,1.772q1.377,1.773,1.407,5.522v1.7h-8.848V75.4a5.781,5.781,0,0,0,.959,3.706,3.384,3.384,0,0,0,2.761,1.157,4.482,4.482,0,0,0,2.014-.432,5.033,5.033,0,0,0,1.633-1.37l1.347,1.641a5.881,5.881,0,0,1-5.142,2.372A5.777,5.777,0,0,1,300.9,80.708Zm1.86-11.338a6.569,6.569,0,0,0-.879,3.435h6.241v-.351a6.051,6.051,0,0,0-.814-3.223,2.5,2.5,0,0,0-2.16-.967A2.718,2.718,0,0,0,302.763,69.37ZM273.744,80.306l-.132,1.875h-2.358v-22.5h2.578v8.393a4.074,4.074,0,0,1,3.662-2.036,4.473,4.473,0,0,1,3.911,1.845,9.748,9.748,0,0,1,1.318,5.567v1.568A9.629,9.629,0,0,1,281.39,80.6a4.45,4.45,0,0,1-3.867,1.875A4.1,4.1,0,0,1,273.744,80.306Zm.087-9.8v7.535a3.176,3.176,0,0,0,3.018,2.136,2.734,2.734,0,0,0,2.52-1.229,7.522,7.522,0,0,0,.776-3.819V73.532a7.608,7.608,0,0,0-.783-4,2.817,2.817,0,0,0-2.542-1.193A3.178,3.178,0,0,0,273.831,70.5ZM257.359,80.526a8.083,8.083,0,0,1-1.721-5.274V73.524a8.289,8.289,0,0,1,1.677-5.471,5.483,5.483,0,0,1,4.432-2.014A5.54,5.54,0,0,1,266.178,68a8.131,8.131,0,0,1,1.722,5.346v1.67a8.259,8.259,0,0,1-1.67,5.45,5.963,5.963,0,0,1-8.87.059Zm1.832-10.848a6.727,6.727,0,0,0-.96,3.83v1.509a6.712,6.712,0,0,0,.96,3.845,2.983,2.983,0,0,0,2.585,1.4q3.428,0,3.531-4.952V73.524a6.722,6.722,0,0,0-.967-3.846,3,3,0,0,0-2.593-1.413A2.951,2.951,0,0,0,259.191,69.678ZM212.653,80.562a9.137,9.137,0,0,1-1.428-5.4V73.538a9.552,9.552,0,0,1,1.369-5.581,4.538,4.538,0,0,1,3.934-1.919,4.07,4.07,0,0,1,3.544,1.845v-8.2h2.593v22.5h-2.372l-.132-1.7a4.08,4.08,0,0,1-3.648,1.992A4.518,4.518,0,0,1,212.653,80.562Zm1.97-10.973a7.415,7.415,0,0,0-.806,3.84v1.58a7.512,7.512,0,0,0,.791,3.913,2.818,2.818,0,0,0,2.578,1.251,3.068,3.068,0,0,0,2.885-1.946V70.24a3.116,3.116,0,0,0-2.871-1.9A2.816,2.816,0,0,0,214.623,69.589Zm-30.8,11.677a4.608,4.608,0,0,1-1.208-3.407,4.818,4.818,0,0,1,1.64-3.838,6.757,6.757,0,0,1,4.5-1.45h1.9V70.887a2.223,2.223,0,0,0-2.549-2.622,2.65,2.65,0,0,0-1.9.7,2.331,2.331,0,0,0-.733,1.765h-2.593A4.2,4.2,0,0,1,183.6,68.4a5,5,0,0,1,1.933-1.735,5.8,5.8,0,0,1,2.711-.63,5.158,5.158,0,0,1,3.7,1.208,4.731,4.731,0,0,1,1.3,3.523v8a9.653,9.653,0,0,0,.5,3.178v.235h-2.7a5.724,5.724,0,0,1-.337-1.729,4.116,4.116,0,0,1-3.515,2.021A4.545,4.545,0,0,1,183.824,81.266Zm2.454-5.947a2.625,2.625,0,0,0-1.07,2.234,2.9,2.9,0,0,0,.543,1.956,2.354,2.354,0,0,0,1.831.607,3.431,3.431,0,0,0,1.816-.527,3.25,3.25,0,0,0,1.26-1.318V74.49h-1.465A4.9,4.9,0,0,0,186.278,75.318Zm-22.559,4.988-.131,1.875H161.23v-22.5h2.578v8.393a4.073,4.073,0,0,1,3.662-2.036,4.473,4.473,0,0,1,3.911,1.845A9.748,9.748,0,0,1,172.7,73.45v1.568a9.629,9.629,0,0,1-1.333,5.581,4.45,4.45,0,0,1-3.867,1.875A4.1,4.1,0,0,1,163.719,80.306Zm.088-9.8v7.535a3.175,3.175,0,0,0,3.018,2.136,2.733,2.733,0,0,0,2.519-1.229,7.521,7.521,0,0,0,.777-3.819V73.532a7.6,7.6,0,0,0-.784-4,2.816,2.816,0,0,0-2.542-1.193A3.177,3.177,0,0,0,163.807,70.5ZM148.295,80.708a7.628,7.628,0,0,1-1.612-5.178v-1.92a8.931,8.931,0,0,1,1.546-5.558,5.126,5.126,0,0,1,4.314-2.014,4.94,4.94,0,0,1,4.16,1.772q1.377,1.773,1.407,5.522v1.7h-8.848V75.4a5.78,5.78,0,0,0,.959,3.706,3.384,3.384,0,0,0,2.761,1.157A4.482,4.482,0,0,0,155,79.83a5.014,5.014,0,0,0,1.633-1.37l1.347,1.641a5.881,5.881,0,0,1-5.142,2.372A5.779,5.779,0,0,1,148.295,80.708Zm1.86-11.338a6.569,6.569,0,0,0-.879,3.435h6.241v-.351a6.06,6.06,0,0,0-.813-3.223,2.507,2.507,0,0,0-2.161-.967A2.718,2.718,0,0,0,150.155,69.37ZM429.134,82.181V66.331h2.52l.043,1.612a3.226,3.226,0,0,1,2.945-1.9,2.28,2.28,0,0,1,1.025.205l.014,2.519a6.3,6.3,0,0,0-1.172-.1,2.845,2.845,0,0,0-2.783,2.182V82.181Zm-50.566,0v-22.5h2.593v22.5Zm-23.394,0-4.76-15.85h2.636l3.12,11.91,3-11.91h2.636l-4.7,15.85Zm-34.116,0V60.853h5.083a7.333,7.333,0,0,1,5.8,2.336,9.592,9.592,0,0,1,2.065,6.57v3.574a9.388,9.388,0,0,1-2.094,6.54,7.794,7.794,0,0,1-6.079,2.308Zm2.681-2.3h2.153a4.988,4.988,0,0,0,4.131-1.62,7.649,7.649,0,0,0,1.333-4.8V69.677a7.731,7.731,0,0,0-1.3-4.948,4.778,4.778,0,0,0-3.919-1.577h-2.4Zm-30.63,2.3v-22.5H295.7v22.5Zm-6.871,0V66.331h2.593v15.85Zm-36.987,0V73.875l.249-8.32L243.92,82.181h-2.051l-5.552-16.567.249,8.261v8.306h-2.68V60.853h3.457l5.566,17.4,5.566-17.4h3.457V82.181Zm-43.945,0V71.766a4.313,4.313,0,0,0-.623-2.644,2.239,2.239,0,0,0-1.868-.784,2.634,2.634,0,0,0-1.736.644,4.655,4.655,0,0,0-1.238,1.685V82.181h-2.593V66.331H199.7l.074,1.715a4.623,4.623,0,0,1,3.852-2.007q4.205,0,4.263,5.61V82.181Zm-67.075,0-3.559-15.542-.22-1.26-.22,1.26L130.54,82.181h-2.432l-4.233-21.328h2.68l2.651,14.6.278,2.388.425-2.11,3.414-14.882h2.241l3.31,14.882L139.3,77.9l.308-2.461,2.607-14.59H144.9l-4.248,21.328ZM79.343,69.3a4.81,4.81,0,0,1-1.253-3.384A5.091,5.091,0,0,1,79.343,62.4,4.772,4.772,0,0,1,83.1,61,4.913,4.913,0,0,1,86.9,62.4a4.987,4.987,0,0,1,1.3,3.515A4.715,4.715,0,0,1,86.9,69.3a5,5,0,0,1-3.8,1.363A4.857,4.857,0,0,1,79.343,69.3Zm-23.687,0A4.813,4.813,0,0,1,54.4,65.918,5.1,5.1,0,0,1,55.656,62.4,4.773,4.773,0,0,1,59.414,61a4.914,4.914,0,0,1,3.8,1.407,4.99,4.99,0,0,1,1.3,3.515,4.718,4.718,0,0,1-1.3,3.384,5,5,0,0,1-3.8,1.363A4.858,4.858,0,0,1,55.656,69.3Zm-23.686,0a4.81,4.81,0,0,1-1.253-3.384A5.091,5.091,0,0,1,31.97,62.4,4.772,4.772,0,0,1,35.727,61a4.917,4.917,0,0,1,3.8,1.407,4.99,4.99,0,0,1,1.3,3.515,4.718,4.718,0,0,1-1.3,3.384,5.007,5.007,0,0,1-3.8,1.363A4.857,4.857,0,0,1,31.97,69.3Zm254.489-6.076a1.661,1.661,0,0,1-.366-1.1,1.718,1.718,0,0,1,.366-1.113,1.556,1.556,0,0,1,2.2.007,1.7,1.7,0,0,1,.374,1.106,1.661,1.661,0,0,1-.366,1.1,1.368,1.368,0,0,1-1.113.439A1.352,1.352,0,0,1,286.458,63.226Zm-87.422-6.711V52.12l1.142.117a5.329,5.329,0,0,0,3.531-1.069,7.608,7.608,0,0,0,2.065-3.706l1.025-3.544-9.316-31.436h5.654L209,35.567l5.771-23.086h5.508L209.906,48.663a14.037,14.037,0,0,1-3.311,6.2,6.724,6.724,0,0,1-4.863,2.124A10.262,10.262,0,0,1,199.037,56.515Zm264.727-14.59a9.384,9.384,0,0,1-3.076-7.207H465.9a6.22,6.22,0,0,0,9.815,4.468,3.9,3.9,0,0,0,1.347-3.12,3.826,3.826,0,0,0-1.26-2.871,18.608,18.608,0,0,0-4.863-2.813,31.85,31.85,0,0,1-5.9-2.959,8.427,8.427,0,0,1-2.564-2.8,7.732,7.732,0,0,1-.85-3.735,8.312,8.312,0,0,1,2.828-6.431,11.536,11.536,0,0,1,14.663.131,9.156,9.156,0,0,1,2.813,6.914h-5.156a5.1,5.1,0,0,0-1.436-3.647,4.835,4.835,0,0,0-3.662-1.509,5.145,5.145,0,0,0-3.589,1.183,4.07,4.07,0,0,0-1.3,3.169,3.46,3.46,0,0,0,.952,2.542,16.983,16.983,0,0,0,4.586,2.541q5.771,2.26,7.852,4.416a7.559,7.559,0,0,1,2.08,5.472,8.345,8.345,0,0,1-2.842,6.617,11.18,11.18,0,0,1-7.617,2.48A11.359,11.359,0,0,1,463.764,41.925ZM433.9,40.87q-3.325-3.9-3.443-10.546V26.866q0-6.913,3.354-10.942A10.963,10.963,0,0,1,442.67,11.9a11.083,11.083,0,0,1,8.862,3.926q3.355,3.926,3.443,10.694v3.34q0,6.885-3.34,10.9a11.923,11.923,0,0,1-17.739.117Zm3.662-21.694a13.458,13.458,0,0,0-1.919,7.662v3.018a13.429,13.429,0,0,0,1.919,7.69,5.969,5.969,0,0,0,5.17,2.8q6.855,0,7.061-9.9V26.866a13.444,13.444,0,0,0-1.933-7.691,5.99,5.99,0,0,0-5.186-2.827A5.9,5.9,0,0,0,437.558,19.175ZM417.65,42.569a10.352,10.352,0,0,1-1.612-6.211V16.671H411.2V12.481h4.834V4.806h5.156v7.675h4.775v4.189h-4.775V36.354a5.35,5.35,0,0,0,.616,2.846,2.3,2.3,0,0,0,2.11.967,6.537,6.537,0,0,0,2.08-.352l-.059,4.369a11.4,11.4,0,0,1-3.6.582A5.45,5.45,0,0,1,417.65,42.569Zm-59.136-.22a9.211,9.211,0,0,1-2.417-6.811,9.634,9.634,0,0,1,3.281-7.676q3.281-2.842,8.994-2.9h3.809V21.593q0-2.842-1.26-4.043a5.381,5.381,0,0,0-3.838-1.2,5.306,5.306,0,0,0-3.809,1.391,4.661,4.661,0,0,0-1.465,3.531h-5.185a8.4,8.4,0,0,1,1.436-4.644,9.993,9.993,0,0,1,3.867-3.471,11.6,11.6,0,0,1,5.42-1.26q4.863,0,7.4,2.417t2.593,7.046v16a19.316,19.316,0,0,0,1,6.358v.469h-5.391a11.414,11.414,0,0,1-.674-3.457,8.235,8.235,0,0,1-7.031,4.043A9.088,9.088,0,0,1,358.514,42.35Zm4.908-11.894a5.254,5.254,0,0,0-2.139,4.468,5.8,5.8,0,0,0,1.085,3.911,4.708,4.708,0,0,0,3.662,1.216A6.87,6.87,0,0,0,369.661,39a6.5,6.5,0,0,0,2.52-2.637V28.8h-2.93A9.807,9.807,0,0,0,363.422,30.455ZM330.917,43.141a12.284,12.284,0,0,1-4.951-4.57,12.672,12.672,0,0,1-1.8-6.753h5.39a8.289,8.289,0,0,0,2.212,6.152,8.169,8.169,0,0,0,6.021,2.2,7.169,7.169,0,0,0,5.332-1.816,6.753,6.753,0,0,0,1.787-4.952,6.555,6.555,0,0,0-1.729-4.892,17.7,17.7,0,0,0-6.24-3.31,27.089,27.089,0,0,1-6.9-3.384,11.974,11.974,0,0,1-3.575-4.043,11.063,11.063,0,0,1-1.186-5.2,11.128,11.128,0,0,1,3.384-8.349A12.189,12.189,0,0,1,337.523.939a13.227,13.227,0,0,1,6.68,1.674,11.419,11.419,0,0,1,4.512,4.658,13.8,13.8,0,0,1,1.581,6.559h-5.39A8.985,8.985,0,0,0,343,7.706a6.9,6.9,0,0,0-5.478-2.168,6.742,6.742,0,0,0-5.039,1.82,6.977,6.977,0,0,0-1.787,5.107,5.955,5.955,0,0,0,1.933,4.52,17.159,17.159,0,0,0,5.977,3.258q6.3,2.083,9.009,5.13a11.545,11.545,0,0,1,2.71,7.969,10.777,10.777,0,0,1-3.37,8.306q-3.368,3.12-9.169,3.12A14.76,14.76,0,0,1,330.917,43.141ZM255.009,40.87q-3.325-3.9-3.443-10.546V26.866q0-6.913,3.354-10.942a10.963,10.963,0,0,1,8.862-4.028,11.083,11.083,0,0,1,8.862,3.926q3.355,3.926,3.443,10.694v3.34q0,6.885-3.34,10.9a11.923,11.923,0,0,1-17.739.117Zm3.662-21.694a13.458,13.458,0,0,0-1.919,7.662v3.018a13.429,13.429,0,0,0,1.919,7.69,5.969,5.969,0,0,0,5.171,2.8q6.855,0,7.06-9.9V26.866a13.444,13.444,0,0,0-1.933-7.691,5.991,5.991,0,0,0-5.186-2.827A5.9,5.9,0,0,0,258.671,19.175Zm-31.7,21.885q-3.09-3.706-3.091-11.03V26.544q0-7.178,3.076-10.913t8.965-3.736a10.027,10.027,0,0,1,7.72,3.076,12.52,12.52,0,0,1,3.032,8.409h-4.893a8.615,8.615,0,0,0-1.684-5.274,5.21,5.21,0,0,0-4.175-1.758,5.945,5.945,0,0,0-5.127,2.271q-1.67,2.271-1.728,7.456v4.044q0,5.6,1.655,7.91a5.989,5.989,0,0,0,5.23,2.314,5.5,5.5,0,0,0,4.13-1.6,6.767,6.767,0,0,0,1.7-4.556h4.893a10.784,10.784,0,0,1-3.237,7.573,10.284,10.284,0,0,1-7.485,3Q230.063,44.767,226.971,41.061ZM173.915,42.35a9.207,9.207,0,0,1-2.417-6.811,9.634,9.634,0,0,1,3.281-7.676q3.281-2.842,8.994-2.9h3.809V21.593q0-2.842-1.26-4.043a5.38,5.38,0,0,0-3.838-1.2,5.306,5.306,0,0,0-3.809,1.391,4.661,4.661,0,0,0-1.464,3.531h-5.186a8.4,8.4,0,0,1,1.436-4.644,10,10,0,0,1,3.867-3.471,11.6,11.6,0,0,1,5.42-1.26q4.863,0,7.4,2.417t2.593,7.046v16a19.316,19.316,0,0,0,1,6.358v.469h-5.391a11.419,11.419,0,0,1-.673-3.457,8.236,8.236,0,0,1-7.032,4.043A9.084,9.084,0,0,1,173.915,42.35Zm4.907-11.894a5.256,5.256,0,0,0-2.138,4.468,5.8,5.8,0,0,0,1.084,3.911,4.708,4.708,0,0,0,3.662,1.216A6.873,6.873,0,0,0,185.063,39a6.5,6.5,0,0,0,2.519-2.637V28.8h-2.93A9.809,9.809,0,0,0,178.822,30.455ZM401.478,44.181V23.351q0-3.721-1.246-5.288A4.48,4.48,0,0,0,396.5,16.5a5.26,5.26,0,0,0-3.471,1.289,9.276,9.276,0,0,0-2.476,3.37V44.181h-5.186v-31.7h4.892l.147,3.428a9.251,9.251,0,0,1,7.7-4.014q8.409,0,8.526,11.221V44.181Zm-102.6,0V23.351q0-3.721-1.245-5.288A4.481,4.481,0,0,0,293.9,16.5a5.262,5.262,0,0,0-3.472,1.289,9.285,9.285,0,0,0-2.475,3.37V44.181h-5.186v-31.7h4.892l.147,3.428a9.251,9.251,0,0,1,7.7-4.014q8.408,0,8.526,11.221V44.181Zm-140.712,0V27.57l.5-16.641L147.5,44.181h-4.1L132.3,11.046l.5,16.524V44.181h-5.361V1.525h6.914l11.133,34.8,11.133-34.8h6.914V44.181Z"  stroke="rgba(0,0,0,0)" stroke-miterlimit="10" stroke-width="1"/>
  </g>
</svg>
