<svg width="478" height="83" viewBox="0 0 478 83" fill="none" xmlns="http://www.w3.org/2000/svg">
<path fill-rule="evenodd" clip-rule="evenodd" d="M126.94 1.32031L139.259 32.0645L151.577 1.32031H158.021V39H153.052V24.3267L153.518 8.48877L141.148 39H137.344L125 8.56641L125.491 24.3267V39H120.522V1.32031H126.94ZM183.331 39C183.055 38.4479 182.83 37.4645 182.658 36.0498C180.432 38.3617 177.775 39.5176 174.687 39.5176C171.927 39.5176 169.658 38.7412 167.881 37.1885C166.121 35.6185 165.241 33.6344 165.241 31.2363C165.241 28.3206 166.345 26.0605 168.554 24.4561C170.779 22.8343 173.902 22.0234 177.922 22.0234H182.58V19.8237C182.58 18.1502 182.08 16.8218 181.079 15.8384C180.078 14.8377 178.603 14.3374 176.654 14.3374C174.946 14.3374 173.514 14.7687 172.358 15.6313C171.202 16.494 170.624 17.5378 170.624 18.7627H165.811C165.811 17.3652 166.302 16.0195 167.286 14.7256C168.286 13.4144 169.632 12.3792 171.323 11.6201C173.031 10.861 174.903 10.4814 176.938 10.4814C180.165 10.4814 182.692 11.2923 184.521 12.9141C186.35 14.5186 187.299 16.7355 187.368 19.5649V32.4526C187.368 35.0233 187.695 37.0677 188.351 38.5859V39H183.331ZM175.386 35.3511C176.887 35.3511 178.31 34.9629 179.656 34.1865C181.001 33.4102 181.976 32.4009 182.58 31.1587V25.4136H178.828C172.962 25.4136 170.029 27.1302 170.029 30.5635C170.029 32.0645 170.529 33.2376 171.53 34.083C172.53 34.9284 173.816 35.3511 175.386 35.3511ZM203.62 31.9868L210.141 10.999H215.265L204.008 43.3218C202.265 47.98 199.496 50.3091 195.701 50.3091L194.795 50.2314L193.009 49.895V46.0132L194.303 46.1167C195.925 46.1167 197.184 45.7889 198.082 45.1333C198.996 44.4777 199.746 43.2786 200.333 41.5361L201.394 38.6895L191.405 10.999H196.632L203.62 31.9868ZM230.43 35.6099C232.138 35.6099 233.631 35.0923 234.907 34.0571C236.184 33.022 236.891 31.728 237.029 30.1753H241.558C241.472 31.7798 240.92 33.3066 239.902 34.7559C238.884 36.2051 237.521 37.361 235.813 38.2236C234.122 39.0863 232.328 39.5176 230.43 39.5176C226.617 39.5176 223.581 38.2495 221.321 35.7134C219.078 33.16 217.957 29.675 217.957 25.2583V24.4561C217.957 21.7301 218.457 19.3062 219.458 17.1841C220.458 15.062 221.89 13.4144 223.753 12.2412C225.634 11.068 227.851 10.4814 230.404 10.4814C233.544 10.4814 236.149 11.4217 238.22 13.3022C240.307 15.1828 241.42 17.624 241.558 20.626H237.029C236.891 18.8145 236.201 17.3307 234.959 16.1748C233.734 15.0016 232.216 14.415 230.404 14.415C227.972 14.415 226.083 15.2949 224.737 17.0547C223.408 18.7972 222.744 21.3247 222.744 24.6372V25.543C222.744 28.7692 223.408 31.2536 224.737 32.9961C226.065 34.7386 227.963 35.6099 230.43 35.6099ZM245.673 24.7407C245.673 21.9976 246.208 19.5304 247.277 17.3394C248.364 15.1483 249.865 13.4575 251.78 12.2671C253.713 11.0767 255.912 10.4814 258.379 10.4814C262.192 10.4814 265.272 11.8013 267.618 14.4409C269.982 17.0806 271.164 20.5915 271.164 24.9736V25.3101C271.164 28.036 270.637 30.4858 269.585 32.6597C268.55 34.8162 267.057 36.4984 265.108 37.7061C263.176 38.9137 260.95 39.5176 258.431 39.5176C254.636 39.5176 251.556 38.1978 249.192 35.5581C246.846 32.9185 245.673 29.4248 245.673 25.0771V24.7407ZM250.486 25.3101C250.486 28.4155 251.202 30.9085 252.634 32.7891C254.083 34.6696 256.016 35.6099 258.431 35.6099C260.864 35.6099 262.796 34.661 264.228 32.7632C265.66 30.8481 266.376 28.174 266.376 24.7407C266.376 21.6698 265.643 19.1854 264.176 17.2876C262.727 15.3726 260.795 14.415 258.379 14.415C256.016 14.415 254.109 15.3553 252.66 17.2358C251.211 19.1164 250.486 21.8078 250.486 25.3101ZM281.696 10.999L281.852 14.5186C283.991 11.8271 286.786 10.4814 290.236 10.4814C296.154 10.4814 299.139 13.8198 299.19 20.4966V39H294.403V20.4707C294.386 18.4521 293.92 16.9598 293.005 15.9937C292.108 15.0275 290.702 14.5444 288.787 14.5444C287.234 14.5444 285.871 14.9585 284.698 15.7866C283.525 16.6147 282.611 17.7017 281.955 19.0474V39H277.167V10.999H281.696ZM331.41 22.2046C327.148 20.9797 324.043 19.4787 322.093 17.7017C320.161 15.9074 319.195 13.6991 319.195 11.0767C319.195 8.10921 320.377 5.65934 322.74 3.72705C325.121 1.77751 328.209 0.802734 332.005 0.802734C334.593 0.802734 336.896 1.30306 338.915 2.30371C340.95 3.30436 342.52 4.68457 343.625 6.44434C344.746 8.2041 345.307 10.1278 345.307 12.2153H340.312C340.312 9.93799 339.587 8.15234 338.138 6.8584C336.689 5.5472 334.645 4.8916 332.005 4.8916C329.555 4.8916 327.64 5.43506 326.26 6.52197C324.897 7.59163 324.215 9.08398 324.215 10.999C324.215 12.5345 324.862 13.8371 326.156 14.9067C327.467 15.9591 329.684 16.9253 332.807 17.8052C335.947 18.6851 338.397 19.6598 340.157 20.7295C341.934 21.7819 343.245 23.0155 344.09 24.4302C344.953 25.8449 345.384 27.5098 345.384 29.4248C345.384 32.4785 344.194 34.9284 341.813 36.7744C339.432 38.6032 336.249 39.5176 332.264 39.5176C329.676 39.5176 327.26 39.0259 325.018 38.0425C322.775 37.0418 321.041 35.6789 319.816 33.9536C318.608 32.2284 318.004 30.2702 318.004 28.0791H322.999C322.999 30.3564 323.836 32.1593 325.509 33.4878C327.2 34.799 329.452 35.4546 332.264 35.4546C334.886 35.4546 336.896 34.9198 338.293 33.8501C339.691 32.7804 340.39 31.3226 340.39 29.4766C340.39 27.6305 339.743 26.2072 338.449 25.2065C337.155 24.1886 334.808 23.188 331.41 22.2046ZM368.313 39C368.037 38.4479 367.813 37.4645 367.64 36.0498C365.415 38.3617 362.758 39.5176 359.669 39.5176C356.909 39.5176 354.64 38.7412 352.863 37.1885C351.104 35.6185 350.224 33.6344 350.224 31.2363C350.224 28.3206 351.328 26.0605 353.536 24.4561C355.762 22.8343 358.884 22.0234 362.904 22.0234H367.562V19.8237C367.562 18.1502 367.062 16.8218 366.062 15.8384C365.061 14.8377 363.586 14.3374 361.636 14.3374C359.928 14.3374 358.496 14.7687 357.34 15.6313C356.184 16.494 355.606 17.5378 355.606 18.7627H350.793C350.793 17.3652 351.285 16.0195 352.268 14.7256C353.269 13.4144 354.614 12.3792 356.305 11.6201C358.013 10.861 359.885 10.4814 361.921 10.4814C365.147 10.4814 367.675 11.2923 369.503 12.9141C371.332 14.5186 372.281 16.7355 372.35 19.5649V32.4526C372.35 35.0233 372.678 37.0677 373.333 38.5859V39H368.313ZM360.368 35.3511C361.869 35.3511 363.292 34.9629 364.638 34.1865C365.984 33.4102 366.959 32.4009 367.562 31.1587V25.4136H363.81C357.944 25.4136 355.011 27.1302 355.011 30.5635C355.011 32.0645 355.512 33.2376 356.512 34.083C357.513 34.9284 358.798 35.3511 360.368 35.3511ZM384.384 10.999L384.539 14.5186C386.678 11.8271 389.473 10.4814 392.924 10.4814C398.841 10.4814 401.826 13.8198 401.878 20.4966V39H397.09V20.4707C397.073 18.4521 396.607 16.9598 395.693 15.9937C394.796 15.0275 393.39 14.5444 391.475 14.5444C389.922 14.5444 388.559 14.9585 387.386 15.7866C386.213 16.6147 385.298 17.7017 384.643 19.0474V39H379.855V10.999H384.384ZM415.594 4.21875V10.999H420.821V14.6997H415.594V32.0645C415.594 33.1859 415.827 34.0312 416.292 34.6006C416.758 35.1527 417.552 35.4287 418.673 35.4287C419.225 35.4287 419.985 35.3252 420.951 35.1182V39C419.691 39.3451 418.466 39.5176 417.276 39.5176C415.137 39.5176 413.523 38.8706 412.437 37.5767C411.35 36.2827 410.806 34.4453 410.806 32.0645V14.6997H405.708V10.999H410.806V4.21875H415.594ZM424.651 24.7407C424.651 21.9976 425.186 19.5304 426.256 17.3394C427.343 15.1483 428.844 13.4575 430.759 12.2671C432.691 11.0767 434.891 10.4814 437.358 10.4814C441.171 10.4814 444.25 11.8013 446.597 14.4409C448.96 17.0806 450.142 20.5915 450.142 24.9736V25.3101C450.142 28.036 449.616 30.4858 448.563 32.6597C447.528 34.8162 446.036 36.4984 444.086 37.7061C442.154 38.9137 439.929 39.5176 437.41 39.5176C433.614 39.5176 430.535 38.1978 428.171 35.5581C425.825 32.9185 424.651 29.4248 424.651 25.0771V24.7407ZM429.465 25.3101C429.465 28.4155 430.181 30.9085 431.613 32.7891C433.062 34.6696 434.994 35.6099 437.41 35.6099C439.842 35.6099 441.775 34.661 443.207 32.7632C444.639 30.8481 445.354 28.174 445.354 24.7407C445.354 21.6698 444.621 19.1854 443.155 17.2876C441.706 15.3726 439.773 14.415 437.358 14.415C434.994 14.415 433.088 15.3553 431.639 17.2358C430.189 19.1164 429.465 21.8078 429.465 25.3101ZM472.45 31.5728C472.45 30.2788 471.958 29.2782 470.975 28.5708C470.008 27.8462 468.309 27.2251 465.876 26.7075C463.461 26.1899 461.537 25.5688 460.105 24.8442C458.691 24.1196 457.638 23.257 456.948 22.2563C456.275 21.2557 455.939 20.0653 455.939 18.6851C455.939 16.3905 456.905 14.4495 458.837 12.8623C460.787 11.2751 463.271 10.4814 466.291 10.4814C469.465 10.4814 472.036 11.3009 474.002 12.9399C475.986 14.5789 476.979 16.6751 476.979 19.2285H472.165C472.165 17.9173 471.604 16.7873 470.483 15.8384C469.379 14.8895 467.981 14.415 466.291 14.415C464.548 14.415 463.185 14.7946 462.202 15.5537C461.218 16.3128 460.727 17.3048 460.727 18.5298C460.727 19.6857 461.184 20.557 462.098 21.1436C463.013 21.7301 464.66 22.2909 467.041 22.8257C469.439 23.3605 471.38 23.9989 472.864 24.7407C474.348 25.4826 475.443 26.3797 476.15 27.4321C476.875 28.4673 477.237 29.7354 477.237 31.2363C477.237 33.738 476.237 35.7479 474.235 37.2661C472.234 38.7671 469.638 39.5176 466.446 39.5176C464.203 39.5176 462.219 39.1208 460.494 38.3271C458.768 37.5335 457.414 36.4294 456.431 35.0146C455.465 33.5827 454.981 32.0386 454.981 30.3823H459.769C459.855 31.9868 460.494 33.2635 461.684 34.2124C462.892 35.144 464.479 35.6099 466.446 35.6099C468.257 35.6099 469.707 35.2476 470.793 34.5229C471.898 33.7811 472.45 32.7977 472.45 31.5728ZM22.6875 78.2969C18.0781 76.9948 14.6016 74.8464 12.2578 71.8516C9.9401 68.8828 8.78125 64.9505 8.78125 60.0547V52.2812C8.78125 45.9531 6.02083 42.7891 0.5 42.7891V37.125C6.02083 37.125 8.78125 33.974 8.78125 27.6719V19.5469C8.83333 14.7812 9.99219 10.9401 12.2578 8.02344C14.5495 5.08073 18.026 2.94531 22.6875 1.61719L24.1719 6.10938C18.7292 7.85417 16.0078 12.3984 16.0078 19.7422V27.6328C16.0078 33.5443 13.8333 37.6589 9.48438 39.9766C13.8333 42.3203 16.0078 46.474 16.0078 52.4375V60.4844C16.0859 67.6458 18.8073 72.0859 24.1719 73.8047L22.6875 78.2969ZM30.7344 60.2109C30.7344 58.9609 31.099 57.9193 31.8281 57.0859C32.5833 56.2526 33.7031 55.8359 35.1875 55.8359C36.6719 55.8359 37.7917 56.2526 38.5469 57.0859C39.3281 57.9193 39.7188 58.9609 39.7188 60.2109C39.7188 61.4089 39.3281 62.4115 38.5469 63.2188C37.7917 64.026 36.6719 64.4297 35.1875 64.4297C33.7031 64.4297 32.5833 64.026 31.8281 63.2188C31.099 62.4115 30.7344 61.4089 30.7344 60.2109ZM51.8281 60.2109C51.8281 58.9609 52.1927 57.9193 52.9219 57.0859C53.6771 56.2526 54.7969 55.8359 56.2812 55.8359C57.7656 55.8359 58.8854 56.2526 59.6406 57.0859C60.4219 57.9193 60.8125 58.9609 60.8125 60.2109C60.8125 61.4089 60.4219 62.4115 59.6406 63.2188C58.8854 64.026 57.7656 64.4297 56.2812 64.4297C54.7969 64.4297 53.6771 64.026 52.9219 63.2188C52.1927 62.4115 51.8281 61.4089 51.8281 60.2109ZM72.9219 60.2109C72.9219 58.9609 73.2865 57.9193 74.0156 57.0859C74.7708 56.2526 75.8906 55.8359 77.375 55.8359C78.8594 55.8359 79.9792 56.2526 80.7344 57.0859C81.5156 57.9193 81.9062 58.9609 81.9062 60.2109C81.9062 61.4089 81.5156 62.4115 80.7344 63.2188C79.9792 64.026 78.8594 64.4297 77.375 64.4297C75.8906 64.4297 74.7708 64.026 74.0156 63.2188C73.2865 62.4115 72.9219 61.4089 72.9219 60.2109ZM89.1328 73.8047C94.4193 72.112 97.1536 67.8021 97.3359 60.875V52.2812C97.3359 46.2656 99.6927 42.1641 104.406 39.9766C99.6927 37.8411 97.3359 33.7396 97.3359 27.6719V19.7422C97.3359 12.3984 94.6146 7.85417 89.1719 6.10938L90.6562 1.61719C95.2656 2.91927 98.7292 5.04167 101.047 7.98438C103.365 10.901 104.536 14.7682 104.562 19.5859V27.7891C104.562 34.013 107.323 37.125 112.844 37.125V42.7891C107.323 42.7891 104.562 45.9531 104.562 52.2812V60.1719C104.562 65.0677 103.378 68.987 101.008 71.9297C98.6641 74.8724 95.2135 76.9948 90.6562 78.2969L89.1328 73.8047ZM123.149 73.48L122.78 70.9487L119.748 57.8047H117.217L121.857 77H124.165L128.265 63.0122L128.568 61.5488L128.871 63.0122L132.826 77H135.133L139.787 57.8047H137.243L134.263 70.9355L133.854 73.5195L133.327 71.1992L129.623 57.8047H127.487L123.69 71.1992L123.149 73.48ZM143.004 75.3652C144.217 76.6309 145.79 77.2637 147.724 77.2637C150.114 77.2637 151.907 76.3452 153.103 74.5083L151.613 73.3481C151.165 73.9282 150.642 74.394 150.044 74.7456C149.446 75.0972 148.717 75.2729 147.855 75.2729C146.643 75.2729 145.641 74.8423 144.85 73.981C144.067 73.1108 143.659 71.9727 143.624 70.5664H153.287V69.5513C153.287 67.2749 152.773 65.5259 151.745 64.3042C150.716 63.0825 149.275 62.4717 147.42 62.4717C146.287 62.4717 145.232 62.7881 144.256 63.4209C143.29 64.0449 142.534 64.915 141.989 66.0312C141.453 67.1387 141.185 68.3999 141.185 69.8149V70.2632C141.185 72.3901 141.791 74.0908 143.004 75.3652ZM144.942 65.5566C145.61 64.8359 146.436 64.4756 147.42 64.4756C148.44 64.4756 149.249 64.8184 149.846 65.5039C150.444 66.1807 150.778 67.1387 150.848 68.3779V68.5625H143.703C143.861 67.2705 144.274 66.2686 144.942 65.5566ZM166.695 75.2861C167.697 73.959 168.198 72.2056 168.198 70.0259V69.8149C168.198 67.5386 167.701 65.7456 166.708 64.436C165.724 63.1265 164.366 62.4717 162.634 62.4717C160.903 62.4717 159.545 63.0825 158.561 64.3042V56.75H156.122V77H158.363L158.481 75.3521C159.466 76.6265 160.859 77.2637 162.661 77.2637C164.348 77.2637 165.693 76.6045 166.695 75.2861ZM164.796 65.8994C165.438 66.8047 165.759 68.0879 165.759 69.749C165.759 71.5684 165.434 72.9307 164.783 73.8359C164.133 74.7412 163.223 75.1938 162.054 75.1938C160.472 75.1938 159.308 74.4468 158.561 72.9526V66.7827C159.264 65.2886 160.419 64.5415 162.028 64.5415C163.232 64.5415 164.155 64.9941 164.796 65.8994ZM186.444 75.4971C186.532 76.2178 186.646 76.7188 186.787 77H189.344V76.7891C189.01 76.0156 188.843 74.9741 188.843 73.6646V67.0991C188.808 65.6577 188.325 64.5283 187.393 63.7109C186.461 62.8848 185.174 62.4717 183.53 62.4717C182.493 62.4717 181.54 62.665 180.669 63.0518C179.808 63.4385 179.123 63.9658 178.613 64.6338C178.112 65.293 177.861 65.9785 177.861 66.6904H180.313C180.313 66.0664 180.608 65.5347 181.197 65.0952C181.786 64.6558 182.515 64.436 183.385 64.436C184.378 64.436 185.13 64.6909 185.64 65.2007C186.149 65.7017 186.404 66.3784 186.404 67.231V68.3516H184.031C181.983 68.3516 180.393 68.7646 179.259 69.5908C178.134 70.4082 177.571 71.5596 177.571 73.0449C177.571 74.2666 178.02 75.2773 178.916 76.0771C179.821 76.8682 180.977 77.2637 182.383 77.2637C183.957 77.2637 185.31 76.6748 186.444 75.4971ZM184.915 74.5479C184.229 74.9434 183.504 75.1411 182.739 75.1411C181.939 75.1411 181.285 74.9258 180.775 74.4951C180.265 74.0645 180.01 73.4668 180.01 72.7021C180.01 70.9531 181.504 70.0786 184.493 70.0786H186.404V73.0054C186.097 73.6382 185.6 74.1523 184.915 74.5479ZM195.053 64.5283L194.974 62.7354H192.667V77H195.105V66.8354C195.439 66.1499 195.905 65.5962 196.503 65.1743C197.101 64.7524 197.795 64.5415 198.586 64.5415C199.562 64.5415 200.278 64.7876 200.735 65.2798C201.201 65.772 201.438 66.5322 201.447 67.5605V77H203.886V67.5737C203.859 64.1724 202.339 62.4717 199.324 62.4717C197.566 62.4717 196.143 63.1572 195.053 64.5283ZM208.526 64.4756C207.489 65.8027 206.971 67.5605 206.971 69.749V69.9336C206.971 72.1133 207.489 73.8799 208.526 75.2334C209.572 76.5869 210.921 77.2637 212.574 77.2637C214.314 77.2637 215.672 76.666 216.647 75.4707L216.766 77H219.007V56.75H216.568V64.1855C215.593 63.043 214.27 62.4717 212.6 62.4717C210.921 62.4717 209.563 63.1396 208.526 64.4756ZM210.412 73.8228C209.744 72.9087 209.41 71.6431 209.41 70.0259C209.41 68.2153 209.744 66.8486 210.412 65.9258C211.08 65.0029 212.011 64.5415 213.207 64.5415C214.718 64.5415 215.839 65.2139 216.568 66.5586V73.1108C215.856 74.4995 214.727 75.1938 213.18 75.1938C212.002 75.1938 211.08 74.7368 210.412 73.8228ZM239.429 73.4668L233.153 57.8047H229.884V77H232.415V69.5249L232.165 61.4961L238.453 77H240.391L246.693 61.4565L246.456 69.5249V77H248.987V57.8047H245.704L239.429 73.4668ZM253.245 65.9653C252.7 67.0815 252.428 68.3384 252.428 69.7358V69.9072C252.428 72.1221 253.025 73.9019 254.221 75.2466C255.425 76.5913 256.994 77.2637 258.927 77.2637C260.21 77.2637 261.344 76.9561 262.329 76.3408C263.322 75.7256 264.082 74.8687 264.609 73.77C265.146 72.6626 265.414 71.4146 265.414 70.0259V69.8545C265.414 67.6221 264.812 65.8335 263.607 64.4888C262.412 63.144 260.843 62.4717 258.901 62.4717C257.644 62.4717 256.523 62.7749 255.539 63.3813C254.563 63.9878 253.799 64.8491 253.245 65.9653ZM255.974 73.8359C255.245 72.8779 254.88 71.6079 254.88 70.0259C254.88 68.2417 255.249 66.8706 255.987 65.9126C256.726 64.9546 257.697 64.4756 258.901 64.4756C260.131 64.4756 261.116 64.9634 261.854 65.939C262.601 66.9058 262.975 68.1714 262.975 69.7358C262.975 71.4849 262.61 72.8472 261.88 73.8228C261.151 74.7896 260.167 75.2729 258.927 75.2729C257.697 75.2729 256.712 74.7939 255.974 73.8359ZM279.045 75.2861C280.047 73.959 280.548 72.2056 280.548 70.0259V69.8149C280.548 67.5386 280.052 65.7456 279.059 64.436C278.074 63.1265 276.716 62.4717 274.985 62.4717C273.253 62.4717 271.896 63.0825 270.911 64.3042V56.75H268.472V77H270.713L270.832 75.3521C271.816 76.6265 273.209 77.2637 275.011 77.2637C276.699 77.2637 278.043 76.6045 279.045 75.2861ZM277.147 65.8994C277.789 66.8047 278.109 68.0879 278.109 69.749C278.109 71.5684 277.784 72.9307 277.134 73.8359C276.483 74.7412 275.574 75.1938 274.405 75.1938C272.823 75.1938 271.658 74.4468 270.911 72.9526V66.7827C271.614 65.2886 272.77 64.5415 274.378 64.5415C275.583 64.5415 276.505 64.9941 277.147 65.8994ZM283.844 77H286.283V62.7354H283.844V77ZM284.002 57.9497C283.765 58.2222 283.646 58.5562 283.646 58.9517C283.646 59.3472 283.765 59.6768 284.002 59.9404C284.249 60.2041 284.609 60.3359 285.083 60.3359C285.558 60.3359 285.918 60.2041 286.165 59.9404C286.411 59.6768 286.534 59.3472 286.534 58.9517C286.534 58.5562 286.411 58.2222 286.165 57.9497C285.918 57.6772 285.558 57.541 285.083 57.541C284.609 57.541 284.249 57.6772 284.002 57.9497ZM290.41 77H292.849V56.75H290.41V77ZM297.964 75.3652C299.177 76.6309 300.75 77.2637 302.684 77.2637C305.074 77.2637 306.867 76.3452 308.062 74.5083L306.573 73.3481C306.125 73.9282 305.602 74.394 305.004 74.7456C304.406 75.0972 303.677 75.2729 302.815 75.2729C301.603 75.2729 300.601 74.8423 299.81 73.981C299.027 73.1108 298.619 71.9727 298.583 70.5664H308.247V69.5513C308.247 67.2749 307.733 65.5259 306.705 64.3042C305.676 63.0825 304.235 62.4717 302.38 62.4717C301.247 62.4717 300.192 62.7881 299.216 63.4209C298.25 64.0449 297.494 64.915 296.949 66.0312C296.413 67.1387 296.145 68.3999 296.145 69.8149V70.2632C296.145 72.3901 296.751 74.0908 297.964 75.3652ZM299.902 65.5566C300.57 64.8359 301.396 64.4756 302.38 64.4756C303.4 64.4756 304.208 64.8184 304.806 65.5039C305.404 66.1807 305.738 67.1387 305.808 68.3779V68.5625H298.663C298.821 67.2705 299.234 66.2686 299.902 65.5566ZM318.161 57.8047V77H323.474C325.197 76.9824 326.704 76.6089 327.996 75.8794C329.297 75.1499 330.294 74.104 330.989 72.7417C331.692 71.3794 332.043 69.793 332.043 67.9824V66.7563C332.035 64.9897 331.679 63.4253 330.976 62.063C330.281 60.7007 329.292 59.6504 328.009 58.9121C326.726 58.1738 325.25 57.8047 323.58 57.8047H318.161ZM320.692 74.9302V59.8877H323.646C325.526 59.9053 326.977 60.5205 327.996 61.7334C329.024 62.9375 329.539 64.6294 329.539 66.8091V67.9297C329.539 70.1709 328.994 71.8979 327.904 73.1108C326.823 74.3237 325.307 74.9302 323.355 74.9302H320.692ZM336.697 75.3652C337.91 76.6309 339.483 77.2637 341.417 77.2637C343.808 77.2637 345.601 76.3452 346.796 74.5083L345.306 73.3481C344.858 73.9282 344.335 74.394 343.737 74.7456C343.14 75.0972 342.41 75.2729 341.549 75.2729C340.336 75.2729 339.334 74.8423 338.543 73.981C337.761 73.1108 337.352 71.9727 337.317 70.5664H346.98V69.5513C346.98 67.2749 346.466 65.5259 345.438 64.3042C344.41 63.0825 342.968 62.4717 341.114 62.4717C339.98 62.4717 338.925 62.7881 337.95 63.4209C336.983 64.0449 336.227 64.915 335.682 66.0312C335.146 67.1387 334.878 68.3999 334.878 69.8149V70.2632C334.878 72.3901 335.484 74.0908 336.697 75.3652ZM338.635 65.5566C339.303 64.8359 340.129 64.4756 341.114 64.4756C342.133 64.4756 342.942 64.8184 343.54 65.5039C344.137 66.1807 344.471 67.1387 344.542 68.3779V68.5625H337.396C337.554 67.2705 337.967 66.2686 338.635 65.5566ZM357.87 62.7354L354.337 73.6909L350.711 62.7354H348.22L353.388 77H355.247L360.362 62.7354H357.87ZM363.724 75.3652C364.937 76.6309 366.51 77.2637 368.443 77.2637C370.834 77.2637 372.627 76.3452 373.822 74.5083L372.333 73.3481C371.884 73.9282 371.361 74.394 370.764 74.7456C370.166 75.0972 369.437 75.2729 368.575 75.2729C367.362 75.2729 366.36 74.8423 365.569 73.981C364.787 73.1108 364.378 71.9727 364.343 70.5664H374.007V69.5513C374.007 67.2749 373.493 65.5259 372.464 64.3042C371.436 63.0825 369.995 62.4717 368.14 62.4717C367.006 62.4717 365.952 62.7881 364.976 63.4209C364.009 64.0449 363.253 64.915 362.708 66.0312C362.172 67.1387 361.904 68.3999 361.904 69.8149V70.2632C361.904 72.3901 362.511 74.0908 363.724 75.3652ZM365.662 65.5566C366.33 64.8359 367.156 64.4756 368.14 64.4756C369.16 64.4756 369.968 64.8184 370.566 65.5039C371.164 66.1807 371.498 67.1387 371.568 68.3779V68.5625H364.422C364.581 67.2705 364.994 66.2686 365.662 65.5566ZM377.052 77H379.491V56.75H377.052V77ZM383.578 65.9653C383.033 67.0815 382.761 68.3384 382.761 69.7358V69.9072C382.761 72.1221 383.358 73.9019 384.554 75.2466C385.758 76.5913 387.327 77.2637 389.26 77.2637C390.543 77.2637 391.677 76.9561 392.662 76.3408C393.655 75.7256 394.415 74.8687 394.942 73.77C395.479 72.6626 395.747 71.4146 395.747 70.0259V69.8545C395.747 67.6221 395.145 65.8335 393.94 64.4888C392.745 63.144 391.176 62.4717 389.234 62.4717C387.977 62.4717 386.856 62.7749 385.872 63.3813C384.896 63.9878 384.132 64.8491 383.578 65.9653ZM386.307 73.8359C385.578 72.8779 385.213 71.6079 385.213 70.0259C385.213 68.2417 385.582 66.8706 386.32 65.9126C387.059 64.9546 388.03 64.4756 389.234 64.4756C390.464 64.4756 391.449 64.9634 392.187 65.939C392.934 66.9058 393.308 68.1714 393.308 69.7358C393.308 71.4849 392.943 72.8472 392.213 73.8228C391.484 74.7896 390.5 75.2729 389.26 75.2729C388.03 75.2729 387.045 74.7939 386.307 73.8359ZM409.365 75.2729C410.358 73.9458 410.855 72.1968 410.855 70.0259V69.8018C410.855 67.499 410.354 65.7017 409.352 64.4097C408.359 63.1177 407.005 62.4717 405.292 62.4717C403.525 62.4717 402.145 63.0869 401.152 64.3174L401.033 62.7354H398.805V82.4844H401.244V75.6157C402.237 76.7144 403.6 77.2637 405.331 77.2637C407.027 77.2637 408.372 76.6001 409.365 75.2729ZM407.388 65.939C408.073 66.8706 408.416 68.1406 408.416 69.749C408.416 71.5771 408.069 72.957 407.375 73.8887C406.689 74.8115 405.762 75.2729 404.593 75.2729C403.09 75.2729 401.974 74.6226 401.244 73.3218V66.5059C401.982 65.1963 403.09 64.5415 404.566 64.5415C405.762 64.5415 406.702 65.0073 407.388 65.939ZM415.166 75.3652C416.379 76.6309 417.952 77.2637 419.886 77.2637C422.276 77.2637 424.069 76.3452 425.265 74.5083L423.775 73.3481C423.327 73.9282 422.804 74.394 422.206 74.7456C421.608 75.0972 420.879 75.2729 420.018 75.2729C418.805 75.2729 417.803 74.8423 417.012 73.981C416.229 73.1108 415.821 71.9727 415.786 70.5664H425.449V69.5513C425.449 67.2749 424.935 65.5259 423.907 64.3042C422.878 63.0825 421.437 62.4717 419.583 62.4717C418.449 62.4717 417.394 62.7881 416.418 63.4209C415.452 64.0449 414.696 64.915 414.151 66.0312C413.615 67.1387 413.347 68.3999 413.347 69.8149V70.2632C413.347 72.3901 413.953 74.0908 415.166 75.3652ZM417.104 65.5566C417.772 64.8359 418.598 64.4756 419.583 64.4756C420.602 64.4756 421.411 64.8184 422.008 65.5039C422.606 66.1807 422.94 67.1387 423.01 68.3779V68.5625H415.865C416.023 67.2705 416.436 66.2686 417.104 65.5566ZM433.979 64.8315C434.41 64.8315 434.81 64.8623 435.179 64.9238V62.6562C434.933 62.5332 434.572 62.4717 434.098 62.4717C432.63 62.4717 431.496 63.1089 430.696 64.3833L430.657 62.7354H428.284V77H430.723V66.875C431.294 65.5127 432.379 64.8315 433.979 64.8315Z" fill="#7030A0"/>
</svg>
